<svg width="339" height="64" viewBox="0 0 339 64" fill="none" xmlns="http://www.w3.org/2000/svg">
<path d="M15.7079 0.842368L2.3009 10.8174C1.15057 11.6732 1.14417 13.3938 2.2881 14.2582L16.4963 24.9944C17.3407 25.6325 18.5239 25.5655 19.3127 24.8599C21.9331 22.516 27.8566 17.5546 32.4713 16.1836C39.2073 14.1824 51.8158 23.1443 47.4978 26.2766C44.4647 28.4769 39.162 25.1587 36.7141 23.3738C35.9261 22.7993 34.8499 22.7486 34.049 23.305L2.33365 45.3366C1.18929 46.1315 1.08759 47.7812 2.13948 48.695C6.32335 52.3296 15.571 60.21 17.0992 60.21C19.0855 60.21 35.1484 50.552 35.1484 50.552L53.2571 59.6335C53.965 59.9885 54.8083 59.9273 55.4533 59.4677C58.9284 56.9912 69.865 49.0989 69.865 47.8548C69.865 46.645 59.0038 38.5668 55.0483 35.665C54.2221 35.0588 53.0914 35.1227 52.3073 35.7824C49.0232 38.5455 40.2835 45.2769 33.6803 44.7225C28.7362 44.3074 21.9224 38.2788 24.5262 35.8476C26.6125 33.8995 30.8304 38.3708 35.1484 38.8929C38.7863 39.3327 62.2236 20.8743 69.5162 15.0489C70.6147 14.1714 70.5767 12.4972 69.4465 11.661L54.919 0.913299C54.2392 0.410358 53.3277 0.352552 52.5898 0.765582L36.213 9.93216C35.5527 10.3017 34.7468 10.2971 34.0908 9.91987L18.0635 0.703477C17.3208 0.276372 16.3953 0.330938 15.7079 0.842368Z" fill="#FF8B1C"/>
<path d="M88.688 52V44.64L108.848 17.312H88.688V9.312H120.752V16.608L100.592 44H121.2V52H88.688ZM125.923 36.512C125.923 27.552 132.515 20.32 141.923 20.32C151.139 20.32 157.411 27.232 157.411 37.344V39.136H134.435C134.947 43.04 138.083 46.304 143.331 46.304C146.211 46.304 149.603 45.152 151.587 43.232L155.171 48.48C152.035 51.36 147.235 52.768 142.435 52.768C133.027 52.768 125.923 46.432 125.923 36.512ZM141.923 26.784C136.867 26.784 134.691 30.56 134.307 33.632H149.539C149.347 30.688 147.299 26.784 141.923 26.784ZM184.53 52V48.096C182.098 51.104 178.706 52.768 174.994 52.768C167.186 52.768 161.298 46.88 161.298 36.576C161.298 26.464 167.122 20.32 174.994 20.32C178.642 20.32 182.098 21.92 184.53 25.056V9.312H192.722V52H184.53ZM184.53 42.016V31.072C183.122 29.024 180.242 27.552 177.49 27.552C172.882 27.552 169.682 31.2 169.682 36.576C169.682 41.888 172.882 45.536 177.49 45.536C180.242 45.536 183.122 44.064 184.53 42.016ZM198.926 30.688C198.926 17.824 208.334 8.608 221.198 8.608C234.126 8.608 243.534 17.824 243.534 30.688C243.534 43.552 234.126 52.768 221.198 52.768C208.334 52.768 198.926 43.552 198.926 30.688ZM234.19 30.688C234.19 22.688 229.07 16.672 221.198 16.672C213.326 16.672 208.27 22.688 208.27 30.688C208.27 38.624 213.326 44.704 221.198 44.704C229.07 44.704 234.19 38.624 234.19 30.688ZM257.848 63.776H249.72V21.088H257.848V24.992C260.216 21.984 263.608 20.32 267.384 20.32C275.32 20.32 281.08 26.208 281.08 36.512C281.08 46.816 275.32 52.768 267.384 52.768C263.736 52.768 260.344 51.232 257.848 48.032V63.776ZM272.632 36.512C272.632 31.2 269.496 27.552 264.824 27.552C262.2 27.552 259.192 29.088 257.848 31.072V42.016C259.192 43.936 262.2 45.536 264.824 45.536C269.496 45.536 272.632 41.888 272.632 36.512ZM284.469 47.968L287.989 42.272C290.229 44.384 294.837 46.496 298.677 46.496C302.197 46.496 303.861 45.28 303.861 43.36C303.861 41.184 301.173 40.416 297.653 39.712C292.341 38.688 285.493 37.408 285.493 30.048C285.493 24.864 290.037 20.32 298.165 20.32C303.413 20.32 307.573 22.112 310.581 24.544L307.381 30.112C305.525 28.128 302.005 26.528 298.229 26.528C295.285 26.528 293.365 27.616 293.365 29.408C293.365 31.328 295.797 32.032 299.253 32.736C304.565 33.76 311.669 35.168 311.669 42.848C311.669 48.544 306.869 52.768 298.293 52.768C292.917 52.768 287.733 50.976 284.469 47.968Z" fill="#FF8B1C"/>
</svg>
